<svg width="84" height="81" viewBox="0 0 84 81" fill="none" xmlns="http://www.w3.org/2000/svg">
<path d="M42 80.5093C65.1968 80.5093 84 62.4865 84 40.2546C84 18.0228 65.1968 0 42 0C18.8042 0 0 18.0228 0 40.2546C0 62.4865 18.8042 80.5093 42 80.5093Z" fill="#283FFF"/>
<path d="M58.73 24.5323V34.4966L52.9493 34.8988L53.8083 27.901L58.73 24.5323Z" fill="#340284"/>
<path d="M7.07922 62.6293C11.1129 68.413 16.6413 73.0965 23.1259 76.2226C29.61 79.3491 36.8292 80.8115 44.079 80.4671C51.3283 80.1231 58.3614 77.9845 64.492 74.2595C70.6222 70.5345 75.6427 65.3508 79.0588 59.2133C78.5503 59.0751 78.0369 58.971 77.5136 58.901L56.5729 56.2703L32.6109 55.6505L14.1138 58.6124C11.3271 59.0604 8.81688 60.4936 7.07922 62.6293Z" fill="#FF5148"/>
<path d="M56.5727 56.2657C56.5727 56.3651 58.9422 56.4881 58.952 56.5827C58.9619 56.6773 58.952 56.8713 58.952 57.0038C58.952 61.2621 52.5 64.716 44.5472 64.716C36.5945 64.716 30.1425 61.2621 30.1425 57.0038C30.1425 56.6854 30.179 56.3684 30.2511 56.0575C30.2856 55.9251 32.5466 55.7926 32.5959 55.6601L56.5727 56.2657Z" fill="white"/>
<path d="M32.759 31.0615C32.759 31.0615 53.9367 18.3293 54.766 33.9003L54.1539 37.6854L55.8422 56.9848C56.4642 64.4178 32.6109 64.7111 32.6109 56.5116L33.9635 46.2871C33.6792 45.1128 33.54 43.911 33.5489 42.7055C33.3267 36.6067 32.759 31.0615 32.759 31.0615Z" fill="#FC9D9D"/>
<path d="M30.8879 30.456C34.8441 30.456 38.0509 27.3825 38.0509 23.5908C38.0509 19.799 34.8441 16.7255 30.8879 16.7255C26.9318 16.7255 23.725 19.799 23.725 23.5908C23.725 27.3825 26.9318 30.456 30.8879 30.456Z" fill="#340284"/>
<path d="M30.3647 20.0753C30.3647 20.0753 22.8464 50.3278 39.0431 52.3575C53.053 54.146 54.6178 33.2049 54.6178 33.2049L53.9415 19.6258L30.3647 20.0753Z" fill="#FC9D9D"/>
<path d="M51.9917 29.9402C52.0904 34.435 51.9917 38.627 51.113 41.2293C50.6737 42.5636 49.7654 43.7985 46.9762 42.2986C36.4861 36.6588 29.2738 41.9012 29.2738 41.9012C29.2738 41.9012 30.3253 50.1906 37.4833 51.9885C44.6412 53.7864 53.9663 49.5471 53.9318 40.16C53.9318 39.0103 54.5982 32.3154 53.6158 28.9277C52.6285 25.4643 51.424 25.3224 51.424 25.3224L51.9917 29.9402Z" fill="#340284"/>
<path d="M37.9227 7.27209C41.8719 7.27209 45.3275 8.84764 47.233 11.2181C47.7202 11.7891 48.3566 12.2263 49.0768 12.4856C49.7971 12.7449 50.5765 12.8168 51.3353 12.6943C51.7978 12.6786 52.2614 12.6914 52.7224 12.7321C65.3747 13.579 63.5828 31.705 52.1399 30.2382C49.726 29.926 47.5588 28.2936 46.3444 25.6867C45.9495 24.8241 45.2436 24.1267 44.356 23.7222C43.4689 23.3172 42.4589 23.232 41.5116 23.4818C40.3431 23.7936 39.1356 23.9531 37.9227 23.955C31.8705 23.955 26.9636 20.2266 26.9636 15.623C26.9636 11.0193 31.8705 7.27209 37.9227 7.27209Z" fill="#340284"/>
<path d="M30.266 22.512C30.8954 22.9113 31.5554 23.2643 32.2406 23.5671C32.2806 23.5846 32.324 23.5941 32.3684 23.5955C32.4124 23.5969 32.4563 23.5898 32.4973 23.5751C32.5387 23.56 32.5768 23.5373 32.6089 23.5084C32.6409 23.4796 32.6666 23.445 32.6849 23.4062C32.754 23.2122 32.7194 23.0466 32.517 22.9804C32.517 22.9804 30.6362 21.9111 30.4585 21.7976C29.9288 21.4049 29.4337 20.971 28.9775 20.5012C28.9519 20.4633 28.9178 20.4311 28.8778 20.407C28.8378 20.3824 28.7934 20.3668 28.7465 20.3606C28.6996 20.354 28.6522 20.3578 28.6068 20.3706C28.5614 20.3833 28.5194 20.4051 28.4839 20.4349C28.4449 20.46 28.4118 20.4931 28.3871 20.531C28.3625 20.5693 28.3462 20.6123 28.3397 20.6568C28.3328 20.7013 28.3363 20.7467 28.3491 20.7903C28.3624 20.8333 28.3846 20.8735 28.4148 20.9081C28.9588 21.5151 29.5808 22.054 30.266 22.512Z" fill="#FC9D9D"/>
<path opacity="0.15" d="M33.0798 54.5529L33.5339 49.9161C35.2716 51.5106 38.1298 52.755 42.5875 52.2818C44.7813 52.0415 46.9065 51.399 48.847 50.3893C49.0791 50.2521 49.2222 50.2331 49.3407 50.3467C49.3639 50.377 49.3802 50.411 49.3896 50.4475C49.399 50.4834 49.4004 50.5213 49.3945 50.5582C49.3886 50.5951 49.3753 50.6306 49.355 50.6623C49.3348 50.6944 49.3081 50.7219 49.2765 50.7441C48.6348 51.2599 46.2258 52.419 42.4345 52.9395C37.187 56.2231 33.0798 54.5529 33.0798 54.5529Z" fill="black"/>
<path d="M41.9901 33.3657C42.7045 33.3657 43.2835 32.8107 43.2835 32.1261C43.2835 31.4415 42.7045 30.8865 41.9901 30.8865C41.2758 30.8865 40.6968 31.4415 40.6968 32.1261C40.6968 32.8107 41.2758 33.3657 41.9901 33.3657Z" fill="black"/>
<path d="M41.4273 31.9747C41.572 31.9747 41.689 31.8626 41.689 31.724C41.689 31.5853 41.572 31.4732 41.4273 31.4732C41.2827 31.4732 41.1657 31.5853 41.1657 31.724C41.1657 31.8626 41.2827 31.9747 41.4273 31.9747Z" fill="white"/>
<path d="M31.7174 33.4131C32.4317 33.4131 33.0107 32.8581 33.0107 32.1735C33.0107 31.4888 32.4317 30.9338 31.7174 30.9338C31.0031 30.9338 30.424 31.4888 30.424 32.1735C30.424 32.8581 31.0031 33.4131 31.7174 33.4131Z" fill="black"/>
<path d="M31.1497 32.022C31.2944 32.022 31.4113 31.9099 31.4113 31.7713C31.4113 31.6326 31.2944 31.5205 31.1497 31.5205C31.0051 31.5205 30.8881 31.6326 30.8881 31.7713C30.8881 31.9099 31.0051 32.022 31.1497 32.022Z" fill="white"/>
<path d="M26.1686 30.7256V32.1166C26.1686 33.4078 26.7038 34.646 27.6565 35.5592C28.6093 36.4723 29.9011 36.9852 31.2483 36.9852C32.5955 36.9852 33.8874 36.4723 34.8401 35.5592C35.7929 34.646 36.328 33.4078 36.328 32.1166V30.7256C36.3463 30.3305 36.2184 29.942 35.9676 29.6279H37.9423C37.6821 29.9402 37.538 30.3262 37.5325 30.7256V32.1166C37.5113 32.7691 37.6273 33.4187 37.8732 34.0276C38.119 34.6365 38.4897 35.1915 38.9636 35.6604C39.4375 36.1288 40.0052 36.5016 40.6322 36.7562C41.2596 37.0107 41.9335 37.1418 42.6147 37.1418C43.2959 37.1418 43.9698 37.0107 44.5972 36.7562C45.2241 36.5016 45.7918 36.1288 46.2657 35.6604C46.7397 35.1915 47.1104 34.6365 47.3562 34.0276C47.6026 33.4187 47.7181 32.7691 47.6968 32.1166V30.7256C47.6983 30.4904 47.6509 30.2572 47.5576 30.0395C47.4643 29.8219 47.3266 29.6246 47.1533 29.458C46.9796 29.292 46.7732 29.1599 46.5467 29.0705C46.3196 28.9811 46.0762 28.9357 45.8308 28.9371H28.0297C27.7849 28.9371 27.5425 28.9835 27.3164 29.0734C27.0903 29.1633 26.8849 29.2953 26.7122 29.4613C26.5389 29.6274 26.4021 29.8247 26.3088 30.0414C26.2155 30.2586 26.1682 30.4909 26.1686 30.7256ZM39.3541 29.6847H45.7716C46.0742 29.6884 46.3635 29.8053 46.5772 30.0102C46.791 30.2151 46.9129 30.4923 46.9169 30.7823V32.1734C46.9105 33.2753 46.4474 34.3295 45.6299 35.104C44.8124 35.8785 43.7076 36.31 42.5579 36.3039C41.4082 36.2977 40.3083 35.8539 39.5002 35.0704C38.6921 34.2869 38.2419 33.228 38.2483 32.1261V30.735C38.2478 30.5959 38.276 30.4582 38.3313 30.33C38.3866 30.2018 38.4685 30.0854 38.5712 29.9875C38.6744 29.8895 38.7963 29.8124 38.9311 29.7604C39.0653 29.7088 39.209 29.6828 39.3541 29.6847ZM26.8449 30.7823C26.8489 30.4923 26.9708 30.2151 27.1846 30.0102C27.3988 29.8053 27.6876 29.6884 27.9902 29.6847H34.4077C34.7103 29.6884 34.9996 29.8053 35.2134 30.0102C35.4271 30.2151 35.549 30.4923 35.553 30.7823V32.1734C35.5495 32.7189 35.4345 33.2583 35.2138 33.7612C34.9927 34.2642 34.6708 34.7203 34.266 35.104C33.8612 35.4872 33.3819 35.791 32.8547 35.9968C32.3275 36.2026 31.7632 36.3072 31.194 36.3039C30.6248 36.3006 30.0621 36.1903 29.5373 35.9783C29.0126 35.7669 28.5367 35.4584 28.1364 35.0704C27.7365 34.6824 27.4196 34.2225 27.2048 33.7177C26.9901 33.2124 26.881 32.6716 26.8844 32.1261L26.8449 30.7823Z" fill="black"/>
<path d="M53.897 39.3935L53.6156 31.6293C53.6156 31.6293 54.909 28.412 58.1918 29.7368C62.0373 31.2508 59.2087 41.0684 53.897 39.3935Z" fill="#FC9D9D"/>
<path opacity="0.2" d="M54.9533 34.8987C55.0644 34.8987 55.1715 34.8566 55.25 34.7809C55.3285 34.7057 55.3729 34.6035 55.3729 34.4965C55.3729 33.2711 55.6593 32.4431 56.2122 32.093C56.458 31.9742 56.728 31.9085 57.0035 31.8995C57.279 31.8905 57.5529 31.9387 57.8067 32.0409C57.9069 32.0712 58.015 32.0651 58.1107 32.023C58.2065 31.9813 58.2825 31.907 58.324 31.8148C58.366 31.7225 58.3704 31.6184 58.3368 31.5229C58.3033 31.4278 58.2342 31.3473 58.1424 31.2981C57.7603 31.1453 57.3471 31.0762 56.9334 31.0966C56.5202 31.1174 56.1164 31.2267 55.7531 31.4164C54.9435 31.9274 54.5338 32.9636 54.5338 34.4965C54.5338 34.6035 54.5782 34.7057 54.6567 34.7809C54.7351 34.8566 54.8423 34.8987 54.9533 34.8987Z" fill="black"/>
<path d="M41.8617 42.4453L34.61 42.4169L34.8371 42.961C35.1293 43.6603 35.6467 44.2518 36.3136 44.6497C36.981 45.0481 37.7635 45.2316 38.5469 45.1739C39.3303 45.1162 40.0742 44.8209 40.6706 44.3298C41.2669 43.8392 41.684 43.1792 41.8617 42.4453Z" fill="white"/>
<path opacity="0.2" d="M35.9726 39.5828H36.7377C36.8488 39.5828 36.9559 39.5402 37.0344 39.4649C37.1129 39.3897 37.1573 39.2871 37.1573 39.1806C37.1573 39.0741 37.1129 38.9715 37.0344 38.8962C36.9559 38.821 36.8488 38.7784 36.7377 38.7784H35.9726C35.6848 38.7846 35.4049 38.6871 35.1877 38.5059C34.9705 38.3242 34.8322 38.0716 34.7996 37.7976C34.7666 37.5232 34.8421 37.2474 35.0104 37.0236C35.1793 36.7998 35.4291 36.6441 35.7109 36.5878C35.7647 36.576 35.8156 36.5542 35.8605 36.5235C35.9054 36.4927 35.9439 36.4539 35.9731 36.4094C36.0027 36.3645 36.0224 36.3143 36.0313 36.2623C36.0407 36.2102 36.0392 36.1568 36.0268 36.1052C36.0145 36.0536 35.9918 36.0049 35.9597 35.9618C35.9276 35.9188 35.8871 35.8819 35.8403 35.854C35.7938 35.8256 35.7415 35.8066 35.6872 35.7981C35.6329 35.7891 35.5772 35.7906 35.5233 35.8024C34.9996 35.8596 34.5212 36.1137 34.1929 36.5088C33.8647 36.9043 33.7136 37.4082 33.7734 37.9102C33.8331 38.4122 34.0982 38.8707 34.5104 39.1853C34.9231 39.5 35.4488 39.6447 35.9726 39.5875V39.5828Z" fill="black"/>
<g opacity="0.2">
<path opacity="0.2" d="M69.9013 60.1852L68.1044 62.2784L69.1706 63.1206L70.9725 61.0274L69.9013 60.1852Z" fill="black"/>
<path opacity="0.2" d="M22.7392 58.1772L20.9409 60.2699L22.0082 61.1121L23.806 59.0194L22.7392 58.1772Z" fill="black"/>
<path opacity="0.2" d="M42.4137 76.4895L42.3169 79.1992L43.6986 79.2446L43.7954 76.5349L42.4137 76.4895Z" fill="black"/>
<path opacity="0.2" d="M60.0515 71.8387L59.7686 73.1308L62.537 73.6868L62.8199 72.3951L60.0515 71.8387Z" fill="black"/>
<path opacity="0.2" d="M16.1306 69.4805L15.1492 70.4069L17.1347 72.3378L18.116 71.4113L16.1306 69.4805Z" fill="black"/>
<path opacity="0.2" d="M46.2677 65.0089L45.9853 66.301L48.7537 66.8574L49.0361 65.5653L46.2677 65.0089Z" fill="black"/>
<path opacity="0.2" d="M31.1861 69.4842L30.9032 70.7763L33.6716 71.3323L33.9545 70.0406L31.1861 69.4842Z" fill="black"/>
</g>
</svg>
